<svg width="33" height="28" viewBox="0 0 33 28" fill="none" xmlns="http://www.w3.org/2000/svg">
<path d="M6.52023 6H30.9758L28.4528 18H9.35851M9.35851 18L5.57414 2H0.52832M9.35851 18L10.62 23.3333M10.62 23.3333H24.3019M10.62 23.3333C10.2854 23.3333 9.96455 23.4738 9.72798 23.7239C9.49141 23.9739 9.35851 24.313 9.35851 24.6667C9.35851 25.0203 9.49141 25.3594 9.72798 25.6095C9.96455 25.8595 10.2854 26 10.62 26C10.9545 26 11.2754 25.8595 11.5119 25.6095C11.7485 25.3594 11.8814 25.0203 11.8814 24.6667C11.8814 24.313 11.7485 23.9739 11.5119 23.7239C11.2754 23.4738 10.9545 23.3333 10.62 23.3333ZM24.3019 23.3333C23.9673 23.3333 23.6465 23.4738 23.4099 23.7239C23.1734 23.9739 23.0404 24.313 23.0404 24.6667C23.0404 25.0203 23.1734 25.3594 23.4099 25.6095C23.6465 25.8595 23.9673 26 24.3019 26C24.6365 26 24.9573 25.8595 25.1939 25.6095C25.4305 25.3594 25.5634 25.0203 25.5634 24.6667C25.5634 24.313 25.4305 23.9739 25.1939 23.7239C24.9573 23.4738 24.6365 23.3333 24.3019 23.3333Z" stroke="#99FE00" stroke-width="3"/>
</svg>
