<svg width="270" height="50" viewBox="0 0 270 50" fill="none" xmlns="http://www.w3.org/2000/svg">
<path fill-rule="evenodd" clip-rule="evenodd" d="M23.1033 18.41C23.5043 18.4079 24.6959 18.3168 25.2006 19.7642C25.5406 20.7392 26.0822 22.3363 26.8254 24.5555H27.1281C27.9251 22.2158 28.4726 20.6187 28.7706 19.7642C29.2806 18.3017 30.5556 18.41 31.0656 18.41L35.0004 18.41V28.81H30.99V22.6811H30.721L28.4854 28.81H25.4681L23.2325 22.6766H22.9636V28.81H18.9531V18.41L23.1033 18.41ZM40.7593 18.41V24.5435H41.0792L43.7986 19.5C44.3265 18.4963 45.4516 18.41 45.4516 18.41H49.3325V28.81H45.2383V22.6766H44.9184L42.2523 27.7201C41.7244 28.7192 40.546 28.81 40.546 28.81H36.6651V18.41H40.7593ZM63.4838 23.3522C62.9127 24.7272 61.1193 25.712 59.1337 25.712H54.8401V28.81H50.9468V23.3522H63.4838Z" fill="#555555"/>
<path fill-rule="evenodd" clip-rule="evenodd" d="M59.322 18.4106H50.7432C50.9473 20.726 53.2941 22.7082 55.7234 22.7082H63.7549C64.2184 20.7838 62.6228 18.4106 59.322 18.4106Z" fill="#555555"/>
<path d="M101.23 10.9795C99.5333 10.9793 97.8531 11.3288 96.2854 12.0082C94.7177 12.6876 93.2932 13.6835 92.0933 14.939C90.8934 16.1946 89.9416 17.6852 89.2922 19.3257C88.6428 20.9662 88.3086 22.7246 88.3086 24.5003C88.309 27.0699 89.0092 29.5862 90.327 31.7543C91.6448 33.9225 93.5257 35.6528 95.7494 36.7425C97.9731 37.8322 100.447 38.2363 102.883 37.9073C105.318 37.5783 107.613 36.5299 109.499 34.8849C111.386 36.5308 113.681 37.58 116.117 37.9095C118.552 38.239 121.027 37.8351 123.252 36.7453C125.476 35.6555 127.357 33.9248 128.675 31.7561C129.993 29.5873 130.693 27.0704 130.693 24.5003C130.693 21.9301 129.993 19.4132 128.675 17.2445C127.357 15.0758 125.476 13.3451 123.252 12.2552C121.027 11.1654 118.552 10.7616 116.117 11.0911C113.681 11.4206 111.386 12.4698 109.499 14.1157C107.181 12.0852 104.253 10.9747 101.23 10.9795ZM117.769 14.441C120.317 14.4433 122.761 15.5038 124.564 17.3898C126.366 19.2757 127.38 21.8329 127.382 24.5003C127.38 27.1679 126.367 29.7256 124.564 31.6119C122.762 33.4982 120.318 34.559 117.769 34.5612C115.49 34.5612 113.422 33.6785 111.773 32.2887C113.317 30.0128 114.148 27.2915 114.152 24.5003C114.148 21.7091 113.317 18.9878 111.773 16.7118C113.422 15.3203 115.49 14.4393 117.769 14.4393V14.441Z" fill="#555555"/>
<g clip-path="url(#clip0_1_564)">
<path d="M189.111 31.2799L188.745 29.4049H184.66L184.01 31.2665L180.736 31.2732C182.294 27.4284 183.856 23.5851 185.422 19.7432C185.688 19.0915 186.161 18.7599 186.859 18.7632C187.392 18.7682 188.261 18.7682 189.468 18.7649L192 31.2749L189.111 31.2799ZM185.58 26.8365H188.212L187.229 22.1365L185.58 26.8365ZM164.472 18.7615L167.765 18.7649L162.675 31.2815L159.342 31.2782C158.504 27.9721 157.677 24.6632 156.859 21.3515C156.697 20.6915 156.375 20.2299 155.756 20.0115C154.841 19.6972 153.923 19.3961 153 19.1082L153 18.7665H158.26C159.17 18.7665 159.701 19.2182 159.872 20.1449C160.044 21.0732 160.477 23.4365 161.172 27.2349L164.472 18.7615ZM172.289 18.7649L169.685 31.2782L166.552 31.2749L169.153 18.7615L172.289 18.7649ZM178.642 18.5332C179.58 18.5332 180.762 18.8332 181.441 19.1082L180.891 21.7032C180.277 21.4499 179.267 21.1082 178.417 21.1199C177.182 21.1415 176.418 21.6732 176.418 22.1832C176.418 23.0132 177.744 23.4315 179.109 24.3382C180.667 25.3715 180.872 26.2999 180.852 27.3082C180.831 29.4015 179.109 31.4665 175.475 31.4665C173.818 31.4415 173.22 31.2982 171.868 30.8065L172.44 28.0982C173.816 28.6899 174.4 28.8782 175.576 28.8782C176.653 28.8782 177.578 28.4315 177.586 27.6532C177.593 27.0999 177.261 26.8249 176.052 26.1415C174.843 25.4565 173.147 24.5082 173.17 22.6049C173.197 20.1682 175.448 18.5332 178.644 18.5332H178.642Z" fill="#555555"/>
</g>
<path d="M235 35.4902C233.152 36.5761 231.05 37.1544 228.906 37.1666C226.763 37.1789 224.654 36.6246 222.793 35.5599C220.933 34.4952 219.387 32.9579 218.312 31.1036C217.236 29.2492 216.67 27.1437 216.67 25.0002C216.67 22.8566 217.236 20.7511 218.312 18.8968C219.387 17.0424 220.933 15.5051 222.793 14.4404C224.654 13.3757 226.763 12.8214 228.906 12.8337C231.05 12.8459 233.152 13.4243 235 14.5102C236.848 13.4243 238.95 12.8459 241.094 12.8337C243.237 12.8214 245.346 13.3757 247.207 14.4404C249.067 15.5051 250.613 17.0424 251.688 18.8968C252.764 20.7511 253.33 22.8566 253.33 25.0002C253.33 27.1437 252.764 29.2492 251.688 31.1036C250.613 32.9579 249.067 34.4952 247.207 35.5599C245.346 36.6246 243.237 37.1789 241.094 37.1666C238.95 37.1544 236.848 36.5761 235 35.4902ZM237.837 33.1835C239.178 33.7285 240.632 33.9356 242.072 33.7865C243.512 33.6374 244.894 33.1367 246.094 32.3284C247.295 31.5201 248.279 30.429 248.96 29.1512C249.64 27.8733 249.996 26.4478 249.996 25.0002C249.996 23.5525 249.64 22.127 248.96 20.8492C248.279 19.5713 247.295 18.4802 246.094 17.6719C244.894 16.8637 243.512 16.3629 242.072 16.2138C240.632 16.0647 239.178 16.2718 237.837 16.8168C239.876 19.0539 241.004 21.9731 241 25.0002C241 28.1502 239.802 31.0235 237.837 33.1835ZM232.163 16.8168C230.822 16.2718 229.368 16.0647 227.928 16.2138C226.488 16.3629 225.107 16.8637 223.906 17.6719C222.705 18.4802 221.721 19.5713 221.04 20.8492C220.36 22.127 220.004 23.5525 220.004 25.0002C220.004 26.4478 220.36 27.8733 221.04 29.1512C221.721 30.429 222.705 31.5201 223.906 32.3284C225.107 33.1367 226.488 33.6374 227.928 33.7865C229.368 33.9356 230.822 33.7285 232.163 33.1835C230.124 30.9464 228.996 28.0272 229 25.0002C229 21.8502 230.198 18.9768 232.163 16.8168ZM235 18.6752C234.155 19.4972 233.483 20.4807 233.025 21.5672C232.567 22.6536 232.332 23.8211 232.333 25.0002C232.333 27.4802 233.355 29.7202 235 31.3252C235.845 30.5031 236.517 29.5197 236.975 28.4332C237.433 27.3467 237.668 26.1793 237.667 25.0002C237.668 23.8211 237.433 22.6536 236.975 21.5672C236.517 20.4807 235.845 19.4972 235 18.6752Z" fill="#555555"/>
<rect x="1" y="1" width="268" height="48" stroke="#2B2B2B" stroke-width="2"/>
<defs>
<clipPath id="clip0_1_564">
<rect width="39" height="40" fill="white" transform="translate(153 5)"/>
</clipPath>
</defs>
</svg>
