<svg width="48" height="48" viewBox="0 0 48 48" fill="none" xmlns="http://www.w3.org/2000/svg">
<path d="M28.0419 14H19.9581C16.6728 14 14 16.6728 14 19.9581V28.0419C14 31.3272 16.6728 34 19.9581 34H28.0419C31.3272 34 34 31.3272 34 28.0419V19.9581C34 16.6728 31.3272 14 28.0419 14ZM31.988 28.0419C31.988 30.2213 30.2213 31.988 28.0419 31.988H19.9581C17.7788 31.988 16.012 30.2213 16.012 28.0419V19.9581C16.012 17.7787 17.7788 16.012 19.9581 16.012H28.0419C30.2213 16.012 31.988 17.7787 31.988 19.9581V28.0419Z" fill="white"/>
<path d="M24.0008 18.8271C21.1486 18.8271 18.8281 21.1476 18.8281 23.9998C18.8281 26.852 21.1486 29.1725 24.0008 29.1725C26.8531 29.1725 29.1735 26.8521 29.1735 23.9998C29.1735 21.1476 26.8531 18.8271 24.0008 18.8271ZM24.0008 27.1606C22.2552 27.1606 20.8401 25.7455 20.8401 23.9999C20.8401 22.2542 22.2552 20.8391 24.0008 20.8391C25.7465 20.8391 27.1615 22.2542 27.1615 23.9999C27.1615 25.7455 25.7464 27.1606 24.0008 27.1606Z" fill="white"/>
<path d="M29.1828 20.1054C29.8674 20.1054 30.4223 19.5505 30.4223 18.866C30.4223 18.1814 29.8674 17.6265 29.1828 17.6265C28.4983 17.6265 27.9434 18.1814 27.9434 18.866C27.9434 19.5505 28.4983 20.1054 29.1828 20.1054Z" fill="white"/>
<rect x="1" y="1" width="46" height="46" stroke="white" stroke-opacity="0.1" stroke-width="2"/>
</svg>
