<svg width="48" height="48" viewBox="0 0 48 48" fill="none" xmlns="http://www.w3.org/2000/svg">
<path d="M28.6234 14.0042L26.2249 14C23.5302 14 21.7888 15.9319 21.7888 18.922V21.1914H19.3771C19.1688 21.1914 19 21.3741 19 21.5994V24.8875C19 25.1128 19.1689 25.2953 19.3771 25.2953H21.7888V33.5922C21.7888 33.8175 21.9575 34 22.1659 34H25.3124C25.5208 34 25.6896 33.8173 25.6896 33.5922V25.2953H28.5093C28.7177 25.2953 28.8865 25.1128 28.8865 24.8875L28.8876 21.5994C28.8876 21.4912 28.8478 21.3876 28.7772 21.311C28.7066 21.2345 28.6103 21.1914 28.5103 21.1914H25.6896V19.2676C25.6896 18.343 25.8933 17.8736 27.0073 17.8736L28.623 17.873C28.8312 17.873 29 17.6903 29 17.4651V14.412C29 14.1871 28.8314 14.0046 28.6234 14.0042Z" fill="white"/>
<rect x="1" y="1" width="46" height="46" stroke="white" stroke-opacity="0.1" stroke-width="2"/>
</svg>
