<svg width="48" height="48" viewBox="0 0 48 48" fill="none" xmlns="http://www.w3.org/2000/svg">
<path d="M37.125 23.918C37.125 23.8535 37.125 23.7803 37.1221 23.6953C37.1191 23.458 37.1133 23.1914 37.1074 22.9072C37.084 22.0898 37.043 21.2754 36.9785 20.5078C36.8906 19.4502 36.7617 18.5684 36.5859 17.9063C36.4004 17.2153 36.0368 16.5851 35.5315 16.0787C35.0261 15.5723 34.3966 15.2074 33.7061 15.0205C32.877 14.7979 31.2539 14.6602 28.9688 14.5752C27.8818 14.5342 26.7187 14.5078 25.5557 14.4932C25.1484 14.4873 24.7705 14.4844 24.4307 14.4814H23.5693C23.2295 14.4844 22.8516 14.4873 22.4443 14.4932C21.2812 14.5078 20.1182 14.5342 19.0312 14.5752C16.7461 14.6631 15.1201 14.8008 14.2939 15.0205C13.6031 15.207 12.9734 15.5717 12.468 16.0782C11.9626 16.5846 11.5991 17.2151 11.4141 17.9063C11.2354 18.5684 11.1094 19.4502 11.0215 20.5078C10.957 21.2754 10.916 22.0898 10.8926 22.9072C10.8838 23.1914 10.8809 23.458 10.8779 23.6953C10.8779 23.7803 10.875 23.8535 10.875 23.918V24.082C10.875 24.1465 10.875 24.2197 10.8779 24.3047C10.8809 24.542 10.8867 24.8086 10.8926 25.0928C10.916 25.9102 10.957 26.7246 11.0215 27.4922C11.1094 28.5498 11.2383 29.4316 11.4141 30.0938C11.7891 31.4971 12.8906 32.6045 14.2939 32.9795C15.1201 33.2022 16.7461 33.3398 19.0312 33.4248C20.1182 33.4658 21.2812 33.4922 22.4443 33.5068C22.8516 33.5127 23.2295 33.5156 23.5693 33.5186H24.4307C24.7705 33.5156 25.1484 33.5127 25.5557 33.5068C26.7187 33.4922 27.8818 33.4658 28.9688 33.4248C31.2539 33.3369 32.8799 33.1992 33.7061 32.9795C35.1094 32.6045 36.2109 31.5 36.5859 30.0938C36.7646 29.4316 36.8906 28.5498 36.9785 27.4922C37.043 26.7246 37.084 25.9102 37.1074 25.0928C37.1162 24.8086 37.1191 24.542 37.1221 24.3047C37.1221 24.2197 37.125 24.1465 37.125 24.082V23.918ZM35.0156 24.0703C35.0156 24.1318 35.0156 24.1992 35.0127 24.2783C35.0098 24.5068 35.0039 24.7588 34.998 25.0313C34.9775 25.8105 34.9365 26.5898 34.875 27.3135C34.7959 28.2568 34.6846 29.0303 34.5469 29.5488C34.3652 30.2256 33.832 30.7617 33.1582 30.9404C32.543 31.1045 30.9932 31.2363 28.8867 31.3154C27.8203 31.3564 26.6719 31.3828 25.5264 31.3975C25.125 31.4033 24.7529 31.4063 24.4189 31.4063H23.5811L22.4736 31.3975C21.3281 31.3828 20.1826 31.3564 19.1133 31.3154C17.0068 31.2334 15.4541 31.1045 14.8418 30.9404C14.168 30.7588 13.6348 30.2256 13.4531 29.5488C13.3154 29.0303 13.2041 28.2568 13.125 27.3135C13.0635 26.5898 13.0254 25.8105 13.002 25.0313C12.9932 24.7588 12.9902 24.5039 12.9873 24.2783C12.9873 24.1992 12.9844 24.1289 12.9844 24.0703V23.9297C12.9844 23.8682 12.9844 23.8008 12.9873 23.7217C12.9902 23.4932 12.9961 23.2412 13.002 22.9688C13.0225 22.1895 13.0635 21.4102 13.125 20.6865C13.2041 19.7432 13.3154 18.9697 13.4531 18.4512C13.6348 17.7744 14.168 17.2383 14.8418 17.0596C15.457 16.8955 17.0068 16.7637 19.1133 16.6846C20.1797 16.6436 21.3281 16.6172 22.4736 16.6025C22.875 16.5967 23.2471 16.5938 23.5811 16.5938H24.4189L25.5264 16.6025C26.6719 16.6172 27.8174 16.6436 28.8867 16.6846C30.9932 16.7666 32.5459 16.8955 33.1582 17.0596C33.832 17.2412 34.3652 17.7744 34.5469 18.4512C34.6846 18.9697 34.7959 19.7432 34.875 20.6865C34.9365 21.4102 34.9746 22.1895 34.998 22.9688C35.0068 23.2412 35.0098 23.4961 35.0127 23.7217C35.0127 23.8008 35.0156 23.8711 35.0156 23.9297V24.0703ZM21.3926 27.9258L28.1895 23.9707L21.3926 20.0742V27.9258Z" fill="white"/>
<rect x="1" y="1" width="46" height="46" stroke="white" stroke-opacity="0.1" stroke-width="2"/>
</svg>
