<svg width="48" height="48" viewBox="0 0 48 48" fill="none" xmlns="http://www.w3.org/2000/svg">
<path fill-rule="evenodd" clip-rule="evenodd" d="M31.7948 25.9943C32.5577 26.6238 33.363 27.2161 34.0472 27.9091C34.3495 28.217 34.6357 28.5348 34.8546 28.8922C35.1648 29.4003 34.8839 29.9593 34.3448 29.9897L30.9941 29.9884C30.1299 30.049 29.4405 29.755 28.8608 29.2556C28.3969 28.8563 27.9673 28.4312 27.5212 28.0184C27.3384 27.8497 27.1469 27.6909 26.9183 27.5654C26.4609 27.3145 26.0638 27.3913 25.8024 27.7945C25.5362 28.2046 25.4758 28.6587 25.4497 29.1157C25.4138 29.7825 25.1753 29.9578 24.3827 29.9883C22.6889 30.0558 21.0814 29.8393 19.5881 29.1171C18.2716 28.4805 17.2507 27.5818 16.362 26.5644C14.6319 24.5833 13.307 22.4063 12.1162 20.1684C11.8481 19.6642 12.0441 19.3935 12.7024 19.384C13.7955 19.366 14.8885 19.3673 15.9828 19.3827C16.4271 19.3882 16.7212 19.6035 16.8928 19.9582C17.4842 21.1872 18.2078 22.3564 19.1161 23.4402C19.358 23.7287 19.6047 24.0173 19.9559 24.2203C20.3445 24.4452 20.6404 24.3707 20.8232 24.0049C20.9391 23.7729 20.9899 23.5231 21.0161 23.2746C21.1027 22.4199 21.1141 21.5667 20.9622 20.715C20.8689 20.1835 20.5147 19.8394 19.8871 19.7388C19.5668 19.6875 19.6145 19.5868 19.7696 19.4323C20.0389 19.1659 20.2922 19 20.7972 19H24.584C25.1801 19.0994 25.3125 19.3258 25.3941 19.8327L25.3974 23.3876C25.3909 23.5839 25.5134 24.1662 25.9317 24.2961C26.2664 24.3886 26.4871 24.1623 26.6879 23.9829C27.5946 23.1696 28.2417 22.2085 28.8198 21.2133C29.0764 20.7757 29.2969 20.3213 29.5107 19.8672C29.6691 19.5303 29.9177 19.3645 30.3668 19.3718L34.0114 19.3746C34.1194 19.3746 34.2288 19.3759 34.3334 19.391C34.9476 19.4795 35.1159 19.7028 34.9262 20.2096C34.6273 21.0048 34.0458 21.6674 33.4772 22.3331C32.8694 23.0439 32.2194 23.7303 31.6167 24.4453C31.0629 25.0982 31.1069 25.4272 31.7948 25.9943Z" fill="white"/>
<rect x="1" y="1" width="46" height="46" stroke="white" stroke-opacity="0.1" stroke-width="2"/>
</svg>
