<svg width="103" height="47" viewBox="0 0 103 47" fill="none" xmlns="http://www.w3.org/2000/svg">
<path d="M57.5671 14.1566C57.5671 11.0292 60.094 8.49398 63.211 8.49398H67.726C70.843 8.49398 73.3699 11.0292 73.3699 14.1566V18.6867H68.5726V14.7229C68.5726 13.941 67.9409 13.3072 67.1616 13.3072H63.7753C62.9961 13.3072 62.3644 13.941 62.3644 14.7229V41.6205C62.3644 42.4023 62.9961 43.0361 63.7753 43.0361H67.1616C67.9409 43.0361 68.5726 42.4023 68.5726 41.6205V35.9578H73.3699V41.3373C73.3699 44.4647 70.843 47 67.726 47H63.211C60.094 47 57.5671 44.4647 57.5671 41.3373V14.1566Z" fill="#99FE00"/>
<path fill-rule="evenodd" clip-rule="evenodd" d="M63.211 8.77711C60.2498 8.77711 57.8493 11.1856 57.8493 14.1566V41.3373C57.8493 44.3084 60.2498 46.7169 63.211 46.7169H67.726C70.6872 46.7169 73.0877 44.3084 73.0877 41.3373V36.241H68.8548V41.6205C68.8548 42.5587 68.0967 43.3193 67.1616 43.3193H63.7753C62.8402 43.3193 62.0822 42.5587 62.0822 41.6205V14.7229C62.0822 13.7847 62.8402 13.0241 63.7753 13.0241H67.1616C68.0967 13.0241 68.8548 13.7847 68.8548 14.7229V18.4036H73.0877V14.1566C73.0877 11.1856 70.6872 8.77711 67.726 8.77711H63.211ZM73.3699 14.1566C73.3699 11.0292 70.843 8.49398 67.726 8.49398H63.211C60.094 8.49398 57.5671 11.0292 57.5671 14.1566V41.3373C57.5671 44.4647 60.094 47 63.211 47H67.726C70.843 47 73.3699 44.4647 73.3699 41.3373V35.9578H68.5726V41.6205C68.5726 42.4023 67.9409 43.0361 67.1616 43.0361H63.7753C62.9961 43.0361 62.3644 42.4023 62.3644 41.6205V14.7229C62.3644 13.941 62.9961 13.3072 63.7753 13.3072H67.1616C67.9409 13.3072 68.5726 13.941 68.5726 14.7229V18.6867H73.3699V14.1566Z" fill="#99FE00"/>
<path fill-rule="evenodd" clip-rule="evenodd" d="M10.7233 30.2952H15.3794V18.5343H21.5877V30.2952H26.2438V9.90964H21.5877V13.8299H15.3794V9.90964H10.7233V30.2952Z" fill="#99FE00"/>
<path fill-rule="evenodd" clip-rule="evenodd" d="M76.474 30.2952H81.1301V18.5343H87.3384V30.2952H91.9945V9.90964H87.3384V13.8299H81.1301V9.90964H76.474V30.2952Z" fill="#99FE00"/>
<path fill-rule="evenodd" clip-rule="evenodd" d="M40.3534 14.614H45.8842V30.2952H50.6251V14.614H56.1562V9.90964H40.3534V14.614Z" fill="#99FE00"/>
<path fill-rule="evenodd" clip-rule="evenodd" d="M29.3479 14.614H31.7467V25.5908H29.3479V30.2952H38.9425V25.5908H36.5437V14.614H38.9425V9.90964H29.3479V14.614Z" fill="#99FE00"/>
<path d="M76.474 35.9578H103V40.7711H76.474V35.9578Z" fill="#99FE00"/>
<path d="M0 35.9578H54.7452V40.7711H0V35.9578Z" fill="#99FE00"/>
<path d="M0 2.10394e-07H103V4.81325H0V2.10394e-07Z" fill="#99FE00"/>
<path d="M103 2.10394e-07V40.7711H98.2027V0L103 2.10394e-07Z" fill="#99FE00"/>
<path d="M4.79726 2.10394e-07L4.79726 40.7711H0V2.10394e-07H4.79726Z" fill="#99FE00"/>
</svg>
